<?xml version="1.0" standalone="no"?>
<!DOCTYPE svg PUBLIC "-//W3C//DTD SVG 20010904//EN"
 "http://www.w3.org/TR/2001/REC-SVG-20010904/DTD/svg10.dtd">
<svg version="1.0" xmlns="http://www.w3.org/2000/svg"
 width="512.000000pt" height="512.000000pt" viewBox="0 0 512.000000 512.000000"
 preserveAspectRatio="xMidYMid meet">
<metadata>
Created by potrace 1.14, written by Peter Selinger 2001-2017
</metadata>
<g transform="translate(0.000000,512.000000) scale(0.100000,-0.100000)"
fill="#000000" stroke="none">
<path d="M0 4530 c0 -332 4 -590 9 -590 5 0 14 7 22 16 7 8 30 24 51 35 21 11
38 23 38 28 0 4 10 13 23 18 22 11 33 19 109 81 23 18 50 38 62 44 12 6 23 14
26 17 3 4 48 33 100 66 52 32 97 63 98 67 2 4 8 8 14 8 17 0 95 51 181 120
100 78 96 76 126 100 13 11 30 20 36 20 7 0 15 7 19 15 3 8 12 15 20 15 8 0
16 5 18 11 6 18 228 139 254 139 8 0 14 4 14 9 0 7 43 27 80 36 3 1 13 5 23 8
9 4 25 10 35 14 9 3 23 5 30 4 7 -1 15 5 18 13 3 8 14 13 25 11 10 -2 19 1 19
6 0 6 8 9 18 8 9 -1 24 0 32 4 42 15 85 27 102 27 10 0 37 9 60 20 22 11 44
17 49 15 4 -3 10 -1 14 5 4 6 11 8 16 5 5 -3 6 1 3 9 -3 9 -1 16 5 16 6 0 11
-5 11 -11 0 -5 5 -7 10 -4 17 10 11 55 -7 61 -10 3 -30 12 -45 20 -15 8 -30
15 -33 14 -3 0 -6 0 -7 1 -10 3 -89 0 -118 -5 -19 -4 -45 -8 -57 -9 -12 -2
-25 -6 -29 -10 -4 -4 -19 -7 -34 -7 -15 0 -30 -3 -34 -7 -12 -12 -36 -12 -36
0 0 8 -3 7 -9 -2 -6 -10 -10 -10 -16 -1 -6 9 -10 9 -16 -1 -6 -10 -9 -11 -9
-1 0 7 -14 12 -35 12 -19 0 -35 -5 -35 -11 0 -6 -7 -8 -16 -5 -10 4 -25 -3
-40 -19 -13 -14 -24 -23 -24 -20 0 3 -10 0 -22 -7 -13 -7 -26 -11 -30 -10 -5
1 -8 -3 -8 -8 0 -6 5 -10 10 -10 6 0 10 -5 10 -10 0 -6 -6 -10 -13 -8 -18 4
-63 -34 -71 -59 -4 -14 -12 -20 -22 -16 -7 3 -14 1 -14 -5 0 -6 -15 -15 -33
-21 -19 -7 -44 -23 -56 -37 -12 -14 -26 -22 -31 -19 -6 3 -10 1 -10 -4 0 -6
-9 -11 -19 -11 -11 0 -23 -5 -26 -10 -4 -6 -11 -8 -16 -5 -5 4 -9 -2 -9 -12 0
-14 -2 -15 -9 -4 -7 11 -13 9 -29 -7 -14 -14 -22 -17 -25 -9 -2 7 -15 13 -28
14 -33 2 -51 7 -74 20 -20 12 -20 12 -1 26 11 8 46 22 78 32 80 24 150 74 271
193 122 121 151 152 144 158 -2 3 -33 -25 -67 -61 -79 -82 -144 -124 -208
-134 l-50 -8 9 31 c5 17 9 32 9 34 0 2 30 35 67 73 l66 69 -481 0 -482 0 0
-590z m620 430 c23 -32 67 -60 112 -69 l27 -6 -27 -30 c-60 -68 -110 -81 -170
-45 -85 52 -97 163 -29 264 l20 28 23 -56 c12 -31 32 -70 44 -86z"/>
<path d="M1700 5116 c0 -6 119 -79 165 -102 72 -34 366 -25 528 17 45 12 89
23 97 24 8 1 23 6 33 10 10 4 20 5 24 2 3 -4 18 0 33 8 15 8 30 11 33 8 4 -3
13 -1 20 6 8 6 41 14 73 17 32 4 61 8 63 10 2 2 -237 4 -532 4 -296 0 -537 -2
-537 -4z"/>
<path d="M3120 5117 c3 -3 25 -7 49 -11 24 -3 50 -11 58 -17 11 -9 12 -9 7 4
-4 12 -1 14 15 10 12 -3 21 -1 21 3 0 5 -35 10 -77 12 -43 2 -75 1 -73 -1z"/>
<path d="M3450 5095 c45 -48 194 -114 320 -140 136 -29 219 -30 290 -5 85 30
148 59 155 70 9 14 25 12 25 -2 0 -6 -3 -9 -6 -5 -3 3 -22 -11 -43 -31 -42
-43 -84 -67 -100 -58 -6 4 -11 2 -11 -4 0 -7 -7 -10 -15 -6 -8 3 -15 1 -15 -5
0 -6 -4 -7 -10 -4 -5 3 -16 3 -22 -2 -7 -4 -33 -6 -57 -6 -25 1 -51 -3 -58 -9
-9 -7 -13 -7 -13 0 0 6 -7 9 -15 6 -8 -4 -15 -2 -15 4 0 15 -42 2 -59 -17 -12
-14 -13 -14 -7 3 5 15 4 17 -8 7 -11 -9 -15 -9 -19 1 -4 10 -7 10 -15 -1 -8
-11 -11 -11 -19 3 -8 14 -11 15 -28 1 -18 -13 -18 -14 -2 -15 9 0 17 -5 17
-11 0 -5 4 -8 8 -5 5 3 25 -10 45 -29 21 -19 37 -30 37 -25 0 6 4 10 10 10 5
0 7 -6 4 -14 -3 -9 3 -17 17 -21 12 -4 33 -17 48 -30 14 -13 58 -48 96 -79 39
-31 79 -65 90 -75 49 -44 117 -91 126 -85 5 3 9 0 9 -5 0 -6 6 -11 14 -11 14
0 16 36 4 56 -4 5 9 10 28 12 22 1 37 -3 40 -12 4 -11 10 -11 30 -2 13 6 22
17 19 24 -2 7 3 12 14 12 10 0 24 7 31 15 7 8 18 15 25 15 6 0 26 7 44 16 18
9 58 18 89 21 46 4 65 0 101 -19 100 -52 79 -85 -62 -97 -83 -7 -101 -12 -132
-36 -45 -33 -75 -81 -75 -117 0 -43 170 -289 266 -383 82 -82 168 -215 138
-215 -8 0 -14 8 -14 18 -1 16 -1 16 -10 0 -7 -11 -7 -25 0 -42 5 -14 12 -41
14 -59 3 -17 7 -50 11 -72 3 -22 25 -101 49 -175 25 -74 47 -155 50 -180 4
-25 9 -63 12 -85 12 -83 5 -250 -12 -277 -3 -5 -8 -24 -11 -41 -3 -18 -9 -39
-14 -48 -5 -10 -3 -21 4 -29 9 -10 9 -11 -2 -5 -11 6 -13 -5 -9 -64 2 -45 0
-71 -7 -71 -5 0 -3 -5 5 -10 11 -7 11 -10 2 -10 -7 0 -11 -4 -8 -9 6 -10 8
-173 2 -216 -2 -16 -7 -38 -11 -47 -5 -13 -2 -18 10 -18 15 0 15 -3 -5 -20
-21 -18 -21 -20 -4 -20 15 0 16 -2 5 -9 -8 -5 -12 -19 -9 -35 3 -14 1 -26 -3
-26 -14 0 -11 -28 4 -33 8 -4 7 -6 -3 -6 -9 -1 -16 -10 -17 -21 -1 -13 2 -18
9 -14 8 5 9 1 3 -12 -4 -10 -7 -29 -6 -42 0 -13 -2 -21 -7 -19 -4 3 -7 -10 -8
-29 0 -21 3 -30 8 -22 5 9 8 9 8 1 0 -6 -6 -18 -13 -25 -7 -7 -15 -17 -18 -23
-2 -5 -8 -9 -14 -7 -5 1 -2 -4 8 -11 18 -15 23 -42 9 -51 -9 -5 -8 -64 3 -88
9 -21 -1 -38 -23 -38 -16 -1 -16 -1 1 -11 22 -13 23 -33 1 -25 -14 5 -15 4 -4
-9 7 -8 9 -15 4 -15 -5 0 0 -7 10 -15 16 -12 17 -17 6 -30 -7 -8 -18 -15 -25
-15 -7 0 -15 -10 -18 -22 -6 -22 -5 -22 8 -4 19 26 31 13 17 -18 -6 -13 -8
-34 -5 -45 4 -16 2 -20 -10 -15 -8 3 -18 1 -22 -5 -3 -7 2 -11 14 -11 26 0 23
-22 -4 -34 -19 -8 -19 -9 5 -16 18 -6 20 -9 8 -10 -10 -1 -22 -3 -28 -4 -5 0
-10 -4 -10 -8 0 -5 0 -13 0 -19 0 -8 5 -7 15 1 12 10 19 10 27 2 7 -7 10 -12
7 -13 -19 -3 -38 -9 -59 -17 -22 -9 -22 -11 -5 -12 11 0 29 -8 40 -17 20 -15
20 -15 -1 -11 -26 6 -52 -27 -29 -36 20 -7 19 -36 -1 -36 -8 0 -12 -5 -9 -10
4 -6 11 -8 16 -5 5 3 6 0 4 -8 -3 -7 4 -22 15 -32 16 -14 17 -20 8 -27 -21
-13 -26 -9 -21 12 6 21 -20 29 -32 10 -8 -12 25 -61 36 -54 5 3 9 -4 9 -15 0
-12 7 -21 16 -21 8 0 12 5 9 10 -3 6 -4 10 -1 10 3 0 10 -10 17 -21 7 -13 7
-19 1 -15 -6 3 -13 2 -17 -4 -4 -7 55 -10 174 -10 l181 0 0 1985 0 1985 -847
0 -846 0 23 -25z m816 -52 c-10 -10 -19 5 -10 18 6 11 8 11 12 0 2 -7 1 -15
-2 -18z m-106 -134 c0 -5 -4 -9 -10 -9 -5 0 -10 7 -10 16 0 8 5 12 10 9 6 -3
10 -10 10 -16z m34 -42 c11 -31 5 -41 -22 -33 -23 8 -34 40 -19 55 16 16 31 8
41 -22z m146 -57 c0 -5 -4 -10 -10 -10 -5 0 -10 5 -10 10 0 6 5 10 10 10 6 0
10 -4 10 -10z m-125 -180 c8 -26 -4 -48 -16 -29 -12 19 -11 49 0 49 5 0 12 -9
16 -20z m644 -230 c61 -62 106 -264 66 -303 -16 -17 -19 -15 -55 20 -48 47
-110 184 -110 242 0 30 6 44 22 55 31 22 42 20 77 -14z m11 -640 c0 -5 -4 -10
-9 -10 -6 0 -13 5 -16 10 -3 6 1 10 9 10 9 0 16 -4 16 -10z m80 -114 c0 -3 -4
-8 -10 -11 -5 -3 -10 -1 -10 4 0 6 5 11 10 11 6 0 10 -2 10 -4z m38 -46 c11
-18 10 -20 -8 -20 -13 0 -20 7 -20 20 0 11 3 20 8 20 4 0 13 -9 20 -20z m-233
-2230 c3 -5 1 -10 -4 -10 -6 0 -11 5 -11 10 0 6 2 10 4 10 3 0 8 -4 11 -10z
m-2 -55 c-3 -9 -8 -14 -10 -11 -3 3 -2 9 2 15 9 16 15 13 8 -4z"/>
<path d="M3260 5086 c0 -9 30 -14 35 -6 4 6 -3 10 -14 10 -12 0 -21 -2 -21 -4z"/>
<path d="M2750 5003 c-19 -2 -125 -22 -235 -43 -110 -22 -258 -46 -330 -55
-268 -32 -495 -81 -698 -151 -277 -94 -415 -169 -677 -363 -64 -47 -179 -123
-255 -169 -179 -105 -462 -316 -515 -383 l-40 -51 0 -106 c0 -93 2 -104 14
-87 7 11 16 30 20 43 4 12 11 22 16 22 5 0 16 12 24 28 15 29 106 131 106 119
0 -4 30 9 66 29 49 27 68 33 74 24 12 -19 -1 -51 -24 -60 -22 -8 -55 -40 -41
-40 4 0 0 -12 -10 -26 -9 -14 -14 -32 -11 -40 3 -8 1 -14 -4 -14 -6 0 -10 -19
-10 -43 0 -24 -6 -49 -12 -56 -11 -11 -10 -12 1 -6 11 6 12 2 6 -21 -4 -16 -9
-36 -10 -44 -2 -8 -4 -16 -5 -17 -4 -6 -3 -41 4 -148 9 -121 9 -115 2 -202 -4
-39 -1 -76 8 -100 7 -21 14 -93 16 -163 2 -69 4 -143 4 -165 1 -24 -6 -51 -16
-67 -10 -14 -18 -35 -18 -46 0 -12 -4 -23 -8 -26 -4 -3 -7 -53 -5 -113 2 -59
4 -117 4 -128 0 -11 4 -22 9 -25 4 -3 0 -29 -10 -58 -11 -29 -22 -74 -26 -100
-4 -26 -9 -56 -11 -67 -9 -39 -6 -91 6 -133 6 -23 9 -47 6 -52 -3 -6 -1 -10 5
-10 7 0 10 -6 7 -14 -3 -7 -1 -18 5 -24 8 -8 7 -13 -5 -18 -15 -5 -15 -8 -1
-30 9 -13 21 -21 28 -17 7 5 7 2 -1 -8 -12 -15 -9 -44 7 -84 28 -67 33 -98 30
-197 -1 -67 1 -79 22 -103 13 -15 23 -31 23 -37 0 -6 7 -13 15 -15 12 -4 12
-3 1 5 -8 6 -9 12 -3 16 5 3 15 -1 21 -8 10 -11 6 -20 -16 -41 -16 -16 3 -6
47 23 92 61 200 116 200 102 0 -6 -21 -25 -47 -43 -66 -46 -287 -208 -293
-215 -3 -3 11 3 30 14 46 27 100 45 100 34 0 -9 56 -31 62 -24 3 2 5 -3 5 -11
0 -8 -5 -11 -10 -8 -6 3 -7 1 -3 -6 4 -7 -2 -20 -16 -31 -13 -11 31 9 97 44
214 113 225 97 19 -29 -125 -77 -148 -95 -120 -95 9 0 16 -5 16 -11 0 -6 9 -9
20 -6 11 3 20 2 20 -2 0 -27 192 -50 234 -29 14 8 17 7 11 -3 -6 -8 -4 -10 6
-3 8 4 23 9 34 10 124 10 173 16 204 23 81 19 195 53 213 62 40 21 28 0 -19
-34 -126 -91 -295 -178 -456 -233 -218 -74 -560 -246 -630 -316 -28 -27 -28
-30 -23 -115 9 -172 27 -296 49 -352 l22 -56 425 -3 425 -2 67 67 c94 95 166
185 181 227 4 10 13 16 21 13 10 -4 12 0 9 14 -4 13 0 19 10 19 8 0 18 6 21
13 4 6 4 2 2 -10 -2 -12 1 -25 8 -28 8 -3 8 -7 -1 -11 -7 -3 -13 -17 -13 -30
0 -13 -4 -32 -9 -42 -9 -17 -33 -72 -36 -82 -9 -28 -30 -66 -55 -102 l-31 -43
325 -3 c179 -1 472 -1 650 0 l324 3 -100 150 c-56 83 -164 238 -241 345 -77
107 -181 258 -232 335 -108 164 -262 438 -271 481 -5 28 25 166 45 201 4 7 40
-30 91 -95 213 -267 554 -566 903 -792 71 -46 126 -88 124 -94 -3 -7 -34 -86
-71 -177 -36 -90 -68 -179 -72 -196 -6 -28 -4 -31 14 -26 21 5 23 1 37 -94 l7
-43 235 0 235 0 -26 34 c-29 39 -31 53 -11 80 7 10 17 43 21 74 8 65 9 64 69
-83 40 -95 43 -100 73 -103 18 -2 32 1 32 7 0 44 -221 475 -278 541 l-32 38
78 55 c106 74 215 171 287 257 33 38 64 70 69 70 11 0 2 -202 -18 -396 -8 -77
-22 -222 -31 -324 -8 -102 -17 -200 -19 -218 l-5 -32 139 0 c157 0 151 -4 156
90 11 187 17 249 26 274 l12 29 18 -23 c10 -12 16 -32 13 -44 -2 -11 -7 -90
-10 -174 l-6 -152 100 0 c100 0 109 3 101 35 -5 18 -8 125 -4 125 2 0 44 -36
93 -80 71 -64 96 -80 121 -80 l31 0 -17 31 c-8 17 -59 75 -111 130 -53 54
-102 108 -110 119 -8 12 -50 56 -92 98 -72 72 -161 180 -161 196 0 7 -40 67
-51 76 -23 20 -52 210 -31 210 30 0 161 -173 471 -621 43 -62 123 -158 180
-215 22 -22 32 -24 109 -24 80 0 84 1 70 18 -8 9 -26 37 -39 62 -13 25 -34 59
-46 76 -13 17 -23 35 -23 40 0 5 -11 31 -25 58 -29 56 -28 56 -15 56 6 0 10
-7 10 -15 0 -8 5 -15 10 -15 6 0 10 -6 10 -13 0 -7 10 -23 23 -34 28 -26 85
-95 117 -142 14 -21 35 -50 46 -64 l22 -27 295 0 296 0 7 36 c4 20 1 53 -5 75
-14 46 -42 66 -146 105 -70 27 -106 41 -169 69 -19 8 -37 15 -40 15 -3 0 -36
14 -73 31 -38 17 -90 40 -118 50 -27 11 -68 28 -90 39 -22 11 -67 31 -100 46
-116 51 -210 99 -242 122 -17 13 -35 24 -40 24 -6 1 -63 34 -92 55 -13 9 10
13 26 5 10 -6 50 -18 88 -28 72 -18 449 -141 655 -213 134 -47 192 -55 198
-28 9 46 -96 105 -423 237 -306 123 -442 165 -668 205 -77 14 -79 15 -162 92
-88 82 -90 91 -19 92 94 2 275 84 393 177 94 74 141 131 218 263 139 239 179
303 258 415 47 65 101 152 120 194 69 145 101 340 92 570 -6 148 -5 154 19
202 89 178 93 291 17 533 -19 62 -59 196 -89 299 -52 185 -71 231 -100 242 -8
3 -28 27 -44 53 -34 53 -140 179 -199 236 -22 21 -43 52 -46 69 -4 17 -23 48
-43 70 -52 57 -307 259 -437 346 -128 85 -409 228 -510 260 -136 42 -370 62
-525 45z m-537 -140 c11 -10 -13 -33 -34 -33 -11 0 -19 -4 -19 -10 0 -5 -11
-12 -25 -16 -14 -3 -25 -10 -25 -15 0 -5 -6 -9 -14 -9 -8 0 -17 -8 -20 -17 -6
-14 -9 -15 -15 -4 -7 10 -11 8 -17 -10 -4 -13 -7 -27 -6 -31 1 -4 -5 -5 -13
-2 -8 4 -15 10 -15 16 0 5 5 6 10 3 6 -3 10 -3 11 2 3 32 10 49 26 60 10 7 23
16 28 20 22 19 86 44 95 38 6 -3 10 -1 10 4 0 12 13 15 23 4z m528 -48 c5 -4
23 -8 39 -10 16 -2 42 -11 59 -19 19 -10 60 -16 117 -17 48 -1 100 -5 117 -10
18 -5 35 -5 41 0 14 12 75 16 101 7 48 -17 113 -54 155 -87 57 -46 75 -55 130
-64 25 -4 54 -9 65 -12 11 -3 26 -5 33 -5 6 -1 12 -5 12 -10 0 -4 -6 -8 -12
-8 -7 0 -5 -5 5 -11 9 -5 17 -18 17 -29 0 -27 11 -51 21 -44 5 3 6 -2 3 -10
-3 -9 -1 -16 6 -16 6 0 8 -4 5 -10 -3 -5 -2 -10 4 -10 5 0 8 -9 6 -19 -3 -15
1 -19 16 -16 10 2 18 -1 16 -8 -1 -7 6 -11 15 -9 9 1 22 -7 28 -18 6 -11 15
-18 21 -15 5 4 9 -1 9 -9 0 -9 6 -13 13 -10 7 2 19 -6 26 -20 8 -13 22 -27 33
-29 11 -3 17 -10 14 -15 -3 -6 0 -12 6 -15 7 -2 18 9 25 24 13 31 9 72 -7 77
-12 4 -14 22 -2 22 12 0 71 -87 78 -116 4 -14 13 -28 20 -31 8 -3 14 -13 14
-23 0 -16 25 -35 41 -32 4 1 13 -13 20 -31 7 -18 19 -36 26 -40 7 -4 13 -15
13 -22 0 -8 5 -15 10 -15 6 0 11 -8 11 -17 1 -17 2 -17 6 0 2 9 8 15 13 12 5
-3 7 -12 4 -19 -3 -8 4 -16 16 -19 12 -3 19 -10 16 -15 -3 -5 1 -15 9 -22 8
-7 12 -16 9 -21 -3 -5 1 -11 8 -14 8 -3 14 -20 13 -38 0 -18 7 -37 17 -44 10
-8 14 -21 11 -34 -4 -14 0 -25 10 -31 9 -4 14 -14 11 -22 -7 -17 22 -40 41
-32 8 3 15 12 15 21 0 8 7 15 15 15 21 0 19 18 -5 32 -27 17 -25 27 3 21 22
-5 22 -5 2 11 -11 10 -13 15 -5 11 8 -4 6 1 -5 10 -17 13 -18 17 -5 25 8 5 11
13 6 17 -4 4 -16 -3 -27 -16 -14 -17 -19 -19 -19 -7 0 9 5 16 10 16 12 0 -6
40 -24 53 -7 5 -3 7 9 4 11 -2 19 -9 17 -16 -2 -9 3 -11 13 -7 17 6 21 3 111
-79 44 -40 70 -74 90 -118 27 -59 29 -69 29 -202 l0 -140 32 -43 c125 -170 88
-478 -48 -398 -20 12 -53 18 -100 19 -53 1 -74 5 -86 19 -9 10 -22 18 -30 18
-8 0 -11 5 -8 10 9 14 -4 12 -18 -2 -69 -73 -123 -149 -158 -222 -51 -104
-147 -206 -243 -258 l-60 -31 -35 40 c-33 36 -43 41 -111 52 -41 6 -87 18
-103 26 l-29 15 6 -32 c10 -52 31 -74 83 -87 80 -21 91 -28 117 -80 39 -75 51
-169 37 -284 -6 -52 -11 -165 -11 -249 0 -173 -12 -236 -61 -329 -17 -32 -48
-77 -67 -100 -49 -57 -171 -135 -249 -159 -56 -17 -227 -37 -288 -34 -11 1
-37 2 -57 3 -70 2 -39 21 35 21 111 1 214 17 273 44 30 14 54 28 54 31 0 5
-39 24 -62 30 -5 2 -10 4 -13 5 -12 6 -31 6 -40 -1 -5 -3 -33 -14 -61 -23 -56
-18 -129 -14 -154 9 -9 8 -24 15 -34 15 -9 0 -19 7 -23 16 -3 8 -12 13 -19 10
-8 -3 -14 1 -14 10 0 8 -5 12 -10 9 -6 -3 -10 -2 -10 3 0 5 -13 15 -30 22 -16
7 -32 22 -36 34 -4 11 -15 33 -25 47 -16 23 -16 29 -4 53 8 14 15 30 17 34 2
4 7 6 12 4 5 -2 3 4 -4 13 -11 13 -10 15 6 9 10 -4 16 -4 12 1 -4 4 -3 14 3
21 13 16 4 34 -17 34 -9 0 -12 5 -8 12 4 6 3 8 -3 5 -6 -4 -28 9 -49 28 -21
19 -42 35 -47 35 -5 0 -21 -13 -37 -28 -19 -20 -38 -59 -59 -128 -34 -110 -42
-126 -56 -116 -20 14 -64 146 -70 207 0 6 -8 27 -18 49 -19 42 -16 109 7 201
13 53 14 184 2 224 -5 15 -5 21 2 17 7 -4 8 3 3 21 -4 15 -4 48 0 73 12 72 10
127 -5 139 -27 22 -116 -35 -116 -74 0 -8 -4 -15 -10 -15 -5 0 -6 -7 -3 -17 5
-12 3 -14 -7 -8 -10 6 -12 4 -7 -8 3 -8 -3 -25 -14 -38 -15 -18 -30 -23 -59
-22 -45 2 -56 -8 -40 -37 7 -13 7 -20 0 -20 -6 0 -8 -28 -5 -77 8 -118 13
-151 26 -175 7 -13 11 -25 10 -28 -1 -3 1 -27 4 -55 7 -56 7 -68 3 -143 -2
-28 -1 -52 2 -52 3 0 5 -27 6 -61 0 -38 5 -64 13 -69 9 -5 10 -10 2 -14 -8 -5
-8 -13 -1 -27 8 -14 7 -19 -2 -19 -8 0 -6 -5 5 -11 21 -12 22 -25 1 -33 -8 -3
-12 -2 -9 4 3 6 -1 13 -9 16 -30 11 -286 276 -286 295 0 4 -11 20 -25 35 -14
15 -25 35 -25 45 0 11 -5 19 -11 19 -6 0 -9 9 -6 20 3 11 1 20 -5 20 -6 0 -8
10 -4 24 3 12 2 26 -1 30 -11 11 -12 90 -1 97 7 4 7 13 0 25 -8 14 -5 28 9 55
16 33 17 38 3 43 -14 5 -14 8 0 22 9 8 14 20 11 25 -4 5 0 9 7 9 10 0 10 2 -1
9 -8 5 -9 11 -3 15 13 8 42 105 42 140 0 14 4 26 8 26 4 0 7 18 5 40 -1 22 2
38 6 36 4 -3 14 7 21 22 11 22 14 24 18 9 2 -10 9 -16 15 -14 6 2 18 -1 25 -7
47 -37 71 -64 64 -71 -4 -5 1 -5 10 -2 9 3 22 -1 28 -9 17 -19 31 -18 23 3 -4
11 -3 14 5 9 7 -4 12 -5 12 -2 0 2 3 13 6 23 5 15 4 16 -6 3 -10 -13 -11 -12
-4 5 4 11 7 28 8 38 0 9 3 17 7 17 3 0 4 11 1 25 -2 15 0 25 7 25 6 0 11 6 11
14 0 9 13 14 38 15 430 9 429 9 545 68 59 30 56 38 -8 22 -60 -15 -398 -6
-538 15 -134 19 -232 71 -274 144 -16 26 -18 55 -3 32 8 -12 10 -10 10 8 0 15
-4 21 -11 16 -8 -5 -9 -2 -1 12 7 13 6 24 -5 40 -12 19 -12 29 -2 66 7 24 19
53 27 65 22 35 60 106 72 136 13 30 35 36 44 10 4 -9 9 -89 12 -177 7 -224 12
-263 35 -285 36 -33 272 -64 499 -65 170 -1 196 8 298 100 54 49 69 57 117 63
58 8 100 41 89 71 -13 35 -16 78 -5 84 35 22 74 -26 85 -107 5 -32 18 -61 41
-90 19 -23 52 -67 74 -98 81 -115 138 -144 272 -137 60 2 84 8 106 24 l28 21
0 210 0 209 43 56 c62 80 59 107 -20 198 -60 69 -72 77 -133 82 l-30 3 -6 90
c-5 80 -12 102 -58 205 -28 62 -75 157 -105 210 -29 52 -64 124 -76 160 -19
51 -38 80 -90 133 -36 37 -73 67 -82 67 -14 0 -38 -45 -38 -72 0 -5 33 -44 74
-87 80 -87 156 -201 192 -289 23 -59 67 -254 79 -354 7 -57 7 -57 -21 -63 -75
-17 -247 -65 -252 -70 -9 -9 16 -117 30 -131 10 -10 29 -9 93 6 175 42 246 34
278 -31 16 -33 16 -42 2 -115 -9 -47 -15 -135 -15 -216 0 -126 -2 -138 -19
-148 -26 -13 -64 -13 -112 2 -83 24 -189 187 -225 343 -21 93 -54 245 -59 271
-5 23 -43 34 -119 34 -24 0 -79 18 -150 49 -229 102 -389 139 -535 126 -100
-9 -251 -47 -292 -73 -45 -27 -471 -276 -481 -280 -4 -2 -8 5 -8 15 0 14 58
53 220 148 281 166 263 152 249 195 -12 33 -11 35 37 78 27 25 78 59 114 76
59 28 74 31 160 30 89 0 106 -4 275 -61 207 -71 277 -87 331 -81 57 7 238 -18
339 -47 91 -27 125 -27 62 0 -84 35 -221 68 -342 81 -150 17 -272 43 -400 84
-98 32 -284 65 -315 57 -11 -3 -20 -2 -20 3 0 4 30 13 66 20 103 20 207 8 380
-43 117 -35 175 -47 255 -52 133 -8 258 -29 333 -55 71 -24 72 -24 56 -5 -22
26 -116 54 -261 75 -162 24 -199 35 -199 60 0 19 -65 58 -77 47 -4 -5 -1 -17
6 -28 28 -46 -21 -47 -144 -5 -139 48 -262 70 -352 62 -87 -7 -207 -33 -246
-53 -24 -12 -28 -12 -34 4 -5 12 7 29 42 60 27 24 57 43 65 43 9 0 20 4 26 8
12 11 86 32 112 32 27 0 72 20 72 33 0 5 -6 7 -14 4 -8 -3 -16 -1 -18 5 -4 12
-157 16 -177 4 -6 -4 -24 0 -38 10 -19 12 -28 14 -31 5 -3 -8 -10 -5 -21 8
-10 12 -20 18 -23 15 -3 -2 -8 4 -11 16 -4 16 3 24 31 37 21 9 40 22 44 27 5
7 8 6 8 -2 0 -8 8 -5 22 8 12 11 34 20 49 20 15 0 30 4 33 8 2 4 24 9 48 10
24 2 65 10 91 18 27 9 51 13 54 10 4 -3 13 3 20 14 8 11 19 18 24 14 11 -6 39
13 39 27 0 30 -149 61 -293 61 -152 0 -255 -32 -363 -113 -28 -22 -59 -39 -69
-39 -30 0 -185 62 -179 71 2 4 42 7 87 6 59 -1 93 4 121 16 47 21 40 32 -31
56 -57 19 -62 35 -13 38 149 11 180 16 180 28 0 13 170 30 259 26 92 -5 216
-55 301 -121 27 -21 51 -29 100 -34 51 -5 265 -46 315 -60 6 -1 28 -8 51 -14
23 -7 63 -14 90 -17 l49 -5 -29 23 -29 24 23 57 c22 52 23 61 11 104 -16 61
-49 103 -125 159 -80 60 -191 111 -276 127 -78 15 -217 2 -370 -34 -47 -11
-133 -27 -193 -35 -125 -17 -193 -34 -334 -81 -198 -67 -271 -110 -390 -233
-39 -40 -76 -71 -81 -67 -16 10 -25 -13 -12 -29 8 -10 9 -15 2 -15 -6 0 -14 5
-18 11 -4 8 -10 5 -17 -7 -14 -25 -18 -66 -6 -59 5 3 6 -1 3 -10 -4 -10 -10
-12 -18 -6 -15 13 -31 2 -40 -27 -4 -12 -16 -27 -27 -32 -10 -6 -19 -17 -19
-25 0 -8 -6 -15 -14 -15 -8 0 -18 -9 -21 -20 -4 -11 -11 -18 -16 -15 -5 3 -6
-2 -2 -11 4 -12 3 -15 -5 -10 -8 5 -10 2 -6 -8 3 -9 1 -16 -5 -16 -6 0 -11 -6
-11 -14 0 -15 -97 -103 -107 -98 -3 2 -10 -2 -15 -10 -6 -9 -7 -5 -2 12 3 14
11 31 16 38 7 8 6 12 -3 12 -10 1 -9 5 4 14 14 11 15 15 5 19 -10 4 -9 9 4 20
10 8 15 17 11 20 -3 4 -1 7 6 7 8 0 11 6 7 16 -3 8 -2 12 4 9 6 -3 10 3 10 14
0 10 -4 21 -10 23 -6 2 -4 15 5 32 14 26 14 31 -1 47 -10 11 -14 27 -11 40 4
16 3 19 -5 11 -6 -6 -17 -8 -24 -5 -8 3 -14 0 -14 -7 0 -6 -4 -8 -10 -5 -6 4
-10 -10 -10 -34 0 -23 -5 -41 -11 -41 -5 0 -7 -5 -4 -10 4 -6 -15 -53 -42
-105 -38 -76 -46 -99 -37 -113 13 -21 60 -28 79 -12 12 10 13 8 10 -9 -5 -27
-42 -80 -73 -105 -31 -25 -131 -234 -138 -290 -8 -63 -11 -206 -4 -206 4 0 22
-14 39 -31 31 -30 32 -33 24 -82 -12 -79 -6 -138 17 -169 26 -35 26 -75 1 -83
-24 -7 -67 -45 -64 -56 2 -4 -4 -6 -12 -3 -8 4 -15 1 -15 -5 0 -6 5 -11 10
-11 6 0 10 -5 10 -10 0 -6 -7 -6 -19 2 -10 6 -17 18 -14 25 4 9 -3 16 -16 20
-11 3 -21 11 -21 18 0 8 -9 17 -20 20 -11 3 -20 13 -20 22 0 8 -9 17 -20 20
-11 3 -20 14 -20 24 0 11 -5 16 -13 13 -8 -3 -14 2 -14 10 0 8 4 13 9 10 4 -3
8 0 8 5 0 6 10 11 23 11 30 0 44 11 56 43 17 45 13 66 -19 97 -17 17 -29 34
-26 38 3 5 -6 20 -19 34 -13 14 -21 29 -17 34 4 4 -1 4 -11 1 -13 -5 -17 -2
-15 10 2 9 -5 17 -14 18 -10 2 -18 -1 -18 -5 0 -5 -9 -12 -20 -15 -11 -3 -20
-14 -20 -24 0 -10 -3 -21 -7 -25 -4 -4 -8 -24 -9 -44 -1 -20 -8 -62 -14 -92
-29 -137 -20 -181 33 -161 22 9 27 8 21 -2 -4 -6 2 -4 14 6 11 11 26 16 32 12
7 -4 3 -13 -12 -26 -13 -10 -29 -23 -36 -29 -7 -6 -17 -8 -23 -5 -17 11 -79
-61 -80 -92 0 -15 -2 -36 -4 -45 -2 -10 3 -18 11 -18 8 0 14 -6 14 -14 0 -17
22 -26 49 -21 11 2 22 -3 25 -11 3 -9 10 -12 16 -9 5 3 10 -1 10 -9 0 -20 35
-42 85 -52 22 -4 42 -8 45 -8 3 -1 18 -10 34 -21 27 -18 29 -18 42 -1 9 13 10
25 4 42 -15 39 -41 74 -56 74 -8 0 -14 5 -14 10 0 6 -12 10 -26 10 -16 0 -23
4 -18 11 4 7 0 9 -14 5 -17 -6 -19 -3 -15 13 3 12 9 19 13 16 5 -3 10 -1 12 4
1 5 17 11 33 14 17 3 42 8 57 12 29 7 71 -14 98 -50 22 -29 61 -135 65 -174 1
-20 -5 -47 -15 -65 -10 -17 -18 -42 -18 -56 0 -14 -1 -29 -3 -35 -1 -5 3 -22
9 -37 12 -28 14 -97 3 -96 -21 2 -21 -4 -3 -21 12 -10 18 -21 15 -25 -4 -4 1
-4 11 0 11 4 28 -1 46 -15 16 -11 33 -21 37 -21 12 0 31 -47 24 -58 -9 -15
-142 -7 -152 9 -4 7 -5 17 -3 21 3 4 0 8 -6 8 -6 0 -9 4 -6 9 3 5 -8 11 -25
13 -16 3 -32 1 -36 -5 -3 -5 -10 -4 -16 2 -6 6 -17 11 -23 11 -7 0 -25 5 -41
12 -15 6 -30 12 -33 12 -3 1 -9 4 -15 7 -5 3 -26 6 -45 8 -19 2 -36 4 -38 6
-8 8 23 43 34 38 6 -2 15 0 18 6 7 11 72 6 120 -9 15 -6 32 -7 37 -4 12 7 11
54 -1 54 -5 0 -10 10 -10 23 0 13 -6 29 -12 36 -11 11 -10 12 1 6 10 -6 11 -2
5 16 -4 13 -7 29 -7 36 0 7 -7 15 -14 17 -9 4 -11 1 -7 -6 8 -13 -66 -4 -75
10 -12 17 -78 62 -83 56 -4 -3 -16 1 -27 8 -15 9 -24 10 -29 2 -4 -6 -15 -13
-25 -17 -10 -4 -16 -11 -13 -16 3 -5 -1 -12 -10 -15 -8 -3 -13 -9 -11 -13 6
-11 -46 -58 -66 -59 -9 -1 -18 9 -21 22 -4 13 -13 24 -21 24 -9 0 -12 6 -9 15
5 11 2 13 -10 9 -10 -4 -16 -1 -16 8 0 12 -11 14 -50 10 -33 -3 -50 -1 -50 7
0 6 7 11 16 11 17 0 44 23 44 39 0 5 9 16 21 24 15 11 21 27 22 65 2 28 -1 48
-5 46 -5 -3 -8 1 -8 9 0 13 -52 65 -58 58 -1 -2 -13 0 -25 4 -12 4 -26 7 -30
6 -12 -2 -32 22 -33 42 -1 9 2 17 8 17 5 0 20 12 34 28 17 18 27 23 31 15 3
-8 14 -11 31 -7 33 8 82 56 64 62 -9 3 -10 8 -2 17 12 15 -12 69 -32 71 -7 0
-26 6 -41 12 -16 7 -37 12 -48 12 -13 0 -19 7 -19 24 0 14 5 28 12 32 16 10
68 11 68 2 0 -13 48 -9 57 5 11 18 12 37 2 37 -6 0 -8 4 -5 8 5 8 -17 123 -27
139 -3 5 -16 50 -27 99 -11 49 -22 94 -24 99 -2 6 -7 20 -11 33 -4 12 -11 22
-15 22 -5 0 -7 12 -6 27 2 15 -3 32 -10 38 -16 11 -1 63 41 146 16 33 23 65
24 109 1 68 -11 94 -39 85 -31 -10 -34 26 -4 49 14 12 52 47 84 79 32 31 62
57 66 57 4 0 15 7 24 15 25 22 90 29 90 10 0 -8 -1 -17 -2 -20 -2 -2 6 -11 17
-19 11 -9 16 -16 12 -16 -4 0 1 -10 13 -22 22 -24 25 -34 10 -43 -6 -4 -8 -11
-5 -16 4 -5 -2 -21 -13 -37 -21 -30 -36 -63 -34 -74 1 -5 -2 -8 -8 -8 -5 0
-10 -16 -10 -35 0 -19 -5 -43 -10 -53 -6 -9 -26 -60 -46 -112 -44 -115 -42
-145 12 -255 l39 -79 79 0 c72 -1 79 1 89 21 6 13 14 23 19 23 4 0 8 24 8 53
0 47 11 107 27 147 19 48 32 120 22 126 -4 2 -6 10 -4 17 6 16 -37 92 -53 93
-7 1 -14 3 -17 4 -6 3 -9 4 -56 13 -28 6 -35 12 -35 30 2 42 51 64 134 61 49
-2 54 0 63 24 6 15 12 35 14 45 5 23 -15 68 -27 61 -5 -3 -12 3 -15 14 -3 13
-17 23 -34 27 -16 4 -30 11 -30 16 -1 5 -2 15 -3 22 -2 16 58 77 76 77 8 0 18
3 22 8 4 4 11 8 14 8 31 5 72 33 92 62 39 54 118 132 135 132 20 0 30 -4 28
-10 -3 -10 56 -3 70 8 8 7 17 9 20 5 4 -3 7 -1 7 5 0 7 8 12 17 12 10 0 29 11
43 25 84 83 161 145 224 180 41 23 48 24 61 11 8 -8 15 -18 15 -22 0 -4 11
-22 26 -41 14 -18 22 -33 19 -33 -3 0 0 -6 7 -14 7 -8 16 -12 20 -9 4 2 5 -2
2 -10 -2 -7 0 -26 6 -41 l10 -28 27 20 c21 15 27 29 29 67 3 37 0 46 -11 42
-32 -13 1 76 39 103 26 18 39 21 104 20 39 0 65 7 95 24 37 22 44 23 61 10 25
-18 116 -19 116 -1 0 9 3 8 9 -2 7 -11 14 -11 41 3 18 8 37 13 43 9 6 -3 7 -1
3 5 -4 7 -1 13 6 13 7 1 24 3 38 5 81 9 163 6 171 -7 7 -11 9 -10 9 5 0 15 3
16 14 7 12 -10 13 -8 8 11 -5 22 -5 22 12 6 22 -23 30 -23 23 1 -7 27 29 54
98 72 58 15 104 17 126 4z m1122 -425 c-3 -12 -8 -19 -11 -16 -5 6 5 36 12 36
2 0 2 -9 -1 -20z m12 -79 c-3 -6 -11 -8 -17 -5 -6 4 -5 9 3 15 16 10 23 4 14
-10z m-2390 -131 c3 -5 1 -10 -4 -10 -6 0 -11 5 -11 10 0 6 2 10 4 10 3 0 8
-4 11 -10z m302 -25 c20 -8 34 -18 31 -21 -9 -8 -148 7 -148 16 0 23 68 25
117 5z m46 -82 c41 -21 29 -25 -37 -11 -55 11 -106 6 -171 -18 -19 -6 -19 -6
-4 10 42 45 145 54 212 19z m-25 -77 c22 -22 9 -32 -76 -61 -39 -13 -89 -33
-112 -45 -23 -12 -45 -19 -48 -15 -4 3 4 26 17 50 23 43 56 73 96 87 32 11
106 2 123 -16z m20 -107 c-2 -6 -31 -22 -63 -35 -33 -14 -76 -37 -95 -53 -34
-27 -73 -51 -84 -51 -3 0 0 12 6 28 31 72 109 119 201 121 24 1 37 -3 35 -10z
m2460 -64 c-3 -3 -9 2 -12 12 -6 14 -5 15 5 6 7 -7 10 -15 7 -18z m-2481 -32
c2 -5 -16 -22 -39 -38 -24 -15 -66 -45 -94 -66 -58 -45 -64 -46 -64 -19 0 33
67 97 123 119 54 21 68 22 74 4z m3 -113 c17 -11 0 -29 -80 -83 -22 -15 -54
-48 -70 -74 -37 -58 -41 -31 -6 42 25 54 66 98 106 114 32 13 32 13 50 1z
m-552 -130 c-53 -163 -50 -325 7 -449 29 -62 24 -79 -11 -36 -85 105 -97 310
-28 479 25 62 53 110 59 104 2 -2 -10 -46 -27 -98z m309 49 c-8 -11 -29 -31
-47 -44 -36 -27 -128 -61 -137 -51 -15 14 43 55 108 76 38 13 72 27 75 32 3 4
7 8 10 8 3 0 -1 -9 -9 -21z m243 -69 c-14 -10 -27 -16 -30 -13 -6 6 30 33 44
33 6 0 0 -9 -14 -20z m-304 -58 c-8 -13 -106 -56 -112 -49 -11 11 17 37 50 46
40 12 69 13 62 3z m218 -89 c-35 -62 -38 -65 -30 -24 6 35 31 71 49 71 5 0 -3
-21 -19 -47z m-219 18 c-6 -5 -35 -19 -65 -31 -41 -16 -51 -17 -40 -6 8 8 33
22 55 30 48 18 63 20 50 7z m1398 -51 c153 -52 185 -96 136 -193 -50 -99 -143
-238 -184 -276 -42 -38 -49 -41 -102 -41 -32 0 -80 7 -108 14 l-50 14 78 1
c96 1 133 17 190 81 41 47 127 189 149 247 17 44 5 61 -64 93 -170 79 -332 79
-516 0 -59 -26 -55 -9 -54 -200 l0 -125 -9 135 c-13 176 -7 200 59 228 168 72
307 79 475 22z m-1422 -20 c-13 -11 -32 -20 -44 -20 -26 0 -15 12 26 27 44 16
45 15 18 -7z m19 -64 c0 -2 -21 -11 -46 -20 -32 -11 -44 -12 -41 -3 5 15 87
37 87 23z m1160 -16 c0 -12 -27 -12 -55 0 -16 7 -13 9 18 9 20 1 37 -3 37 -9z
m-1190 -84 c0 -3 -4 -8 -10 -11 -5 -3 -10 -1 -10 4 0 6 5 11 10 11 6 0 10 -2
10 -4z m-12 -115 c31 -16 69 -40 83 -53 29 -27 85 -156 98 -225 5 -25 16 -50
25 -55 11 -6 15 -16 10 -30 -4 -14 -2 -18 5 -14 6 4 11 0 11 -9 0 -10 -7 -15
-17 -13 -29 5 -31 -107 -4 -161 26 -50 26 -57 1 -83 -24 -26 -25 -43 -4 -83 9
-16 18 -48 20 -70 6 -45 34 -108 49 -109 11 -1 9 44 -5 144 -21 152 -21 155
-10 144 5 -5 17 -32 24 -60 8 -27 24 -76 35 -109 11 -33 22 -73 26 -88 3 -15
10 -25 15 -22 5 3 7 0 4 -8 -3 -8 4 -41 16 -73 12 -33 30 -84 41 -114 11 -30
26 -70 35 -88 25 -53 11 -59 -28 -11 -37 46 -63 91 -97 170 l-19 46 -75 -5
c-95 -6 -148 17 -227 99 -83 85 -122 168 -169 356 -69 275 -74 380 -20 484 40
76 85 87 177 40z m-718 -118 c0 -7 -7 -13 -15 -13 -8 0 -15 6 -15 13 0 8 7 14
15 14 8 0 15 -6 15 -14z m3844 -296 c10 -51 7 -121 -9 -175 -15 -49 -34 -94
-117 -272 -48 -105 -51 -110 -60 -110 -4 0 -8 -9 -8 -20 0 -11 -3 -20 -8 -20
-4 0 -15 -17 -25 -37 -9 -21 -30 -60 -47 -88 -16 -27 -42 -71 -56 -97 -15 -27
-31 -48 -36 -48 -4 0 -8 -5 -8 -11 0 -12 -47 -80 -106 -155 -46 -58 -154 -167
-154 -156 0 4 -9 -4 -19 -17 l-19 -24 -11 22 c-10 17 -10 26 0 37 6 8 19 29
28 47 9 17 22 31 29 30 7 -2 12 4 12 12 0 17 48 111 67 132 7 8 20 31 30 51 9
20 27 51 38 67 56 77 103 196 111 276 7 67 49 141 123 214 72 72 77 80 62 104
-13 20 -169 23 -229 5 -25 -8 -51 -14 -59 -14 -45 0 24 158 95 219 26 23 53
41 60 41 6 0 12 5 12 10 0 6 11 10 25 10 14 0 25 4 25 8 0 14 32 11 69 -5 39
-17 63 -5 41 22 -7 9 -8 15 -2 15 6 0 12 -5 14 -12 3 -9 14 -8 44 4 38 15 39
15 61 -10 11 -14 24 -38 27 -55z m-2254 -337 c12 -8 11 -10 -7 -10 -13 0 -23
5 -23 10 0 13 11 13 30 0z m-1850 -193 c0 -5 4 -6 9 -3 14 9 41 -18 50 -51 7
-26 7 -31 -5 -26 -8 3 -14 1 -14 -3 0 -5 -23 -10 -52 -12 -29 -2 -58 -8 -65
-14 -10 -8 -13 -7 -13 3 -1 10 -4 8 -11 -3 -5 -10 -16 -18 -24 -18 -7 0 -15
-6 -18 -12 -4 -10 -7 -10 -18 0 -7 6 -21 12 -31 12 -24 0 -23 17 1 25 12 3 21
19 25 40 4 21 13 35 21 35 8 0 15 6 15 14 0 8 8 17 18 19 28 7 112 3 112 -6z
m1184 -204 c20 -98 51 -171 121 -286 33 -54 65 -106 70 -115 6 -9 28 -42 51
-72 22 -30 57 -81 78 -113 41 -61 161 -186 201 -207 20 -11 26 -10 39 3 18 17
21 47 6 47 -5 0 -10 8 -11 18 0 9 -9 31 -20 47 -10 17 -22 37 -26 45 -3 8 -18
31 -33 50 -55 73 -140 200 -160 242 -21 43 -21 43 -1 18 12 -14 33 -45 48 -70
14 -25 32 -49 38 -55 12 -11 55 -68 94 -125 13 -19 32 -41 43 -48 10 -7 16
-17 13 -22 -3 -5 0 -12 7 -17 7 -4 26 -26 43 -48 16 -22 35 -44 42 -48 7 -4
13 -15 13 -22 0 -8 4 -15 8 -15 5 0 27 -17 50 -37 22 -21 66 -60 98 -88 31
-27 62 -56 68 -63 116 -140 150 -153 185 -73 11 27 21 58 21 68 0 18 26 99 38
117 4 6 7 27 9 46 1 19 7 36 12 38 6 2 18 10 26 19 11 10 15 11 15 2 0 -7 6
-5 14 6 7 10 19 20 27 21 8 2 29 7 46 13 21 6 35 6 39 0 3 -5 10 -7 15 -4 13
8 -1 -28 -16 -40 -15 -13 -65 -110 -65 -127 0 -7 28 15 63 48 120 116 208 173
312 200 106 29 102 14 -10 -43 -133 -67 -214 -129 -306 -236 -99 -115 -156
-239 -119 -262 13 -8 73 44 120 104 19 23 40 48 45 55 17 17 75 106 75 113 0
7 52 71 114 138 l45 50 0 -60 c1 -78 -20 -121 -105 -217 -118 -132 -269 -238
-340 -238 -35 0 -174 75 -293 157 -98 69 -252 194 -286 233 -11 12 -78 74
-150 137 -141 125 -183 168 -280 284 -131 155 -145 178 -145 234 0 27 -9 110
-20 183 -11 74 -20 141 -19 150 1 30 38 -62 53 -135z m-969 42 c11 -3 28 -24
37 -46 16 -39 16 -39 -6 -39 -13 0 -26 -3 -30 -7 -14 -14 -74 -12 -86 2 -7 8
-19 15 -26 15 -8 0 -14 7 -14 15 0 8 -5 15 -11 15 -8 0 -8 5 1 15 7 8 16 12
21 9 5 -3 9 2 9 10 0 21 58 27 105 11z m591 6 c11 9 20 5 42 -19 22 -23 28
-39 27 -70 0 -22 -7 -48 -15 -58 -8 -9 -14 -19 -12 -21 1 -1 2 -7 2 -13 0 -19
-21 -10 -54 25 -22 22 -44 35 -60 35 -16 0 -26 6 -26 15 0 8 4 15 9 15 10 0
24 38 22 61 -2 17 42 42 47 27 2 -5 10 -4 18 3z m-778 -83 c-3 -7 8 -26 24
-43 31 -33 30 -55 -6 -89 -26 -25 -43 -63 -40 -93 1 -19 -5 -22 -46 -25 -27
-1 -46 1 -43 6 3 5 -6 7 -21 4 -14 -3 -29 -2 -31 2 -3 5 -14 6 -25 3 -11 -3
-20 0 -20 6 0 6 4 11 8 11 5 0 19 25 33 55 13 30 29 55 34 55 17 0 83 59 90
80 4 11 13 20 21 20 8 0 14 5 14 10 0 6 3 10 6 10 3 0 4 -6 2 -12z m406 -20
c-5 -8 -2 -9 10 -5 23 9 34 -22 13 -38 -9 -7 -14 -15 -10 -18 3 -4 -1 -9 -10
-13 -19 -7 -77 31 -77 51 0 7 12 18 28 23 38 14 55 14 46 0z m186 -168 c14
-22 33 -42 43 -45 21 -8 22 -31 2 -39 -22 -8 -38 -55 -25 -72 9 -9 6 -18 -9
-33 -31 -31 -71 -17 -71 25 0 22 -4 24 -41 24 -33 0 -40 3 -35 16 3 9 6 19 6
24 0 5 7 16 16 24 14 15 14 17 0 32 -22 22 -20 27 9 22 20 -4 29 1 45 28 10
19 23 34 28 34 4 0 19 -18 32 -40z m331 17 c20 -15 16 -43 -9 -71 -10 -11 -22
-29 -25 -38 -8 -24 -47 -18 -58 9 -6 17 -14 21 -38 18 -25 -3 -29 -1 -23 13
13 32 37 62 49 62 7 0 13 5 13 10 0 14 72 12 91 -3z m-665 -72 c11 -11 21 -12
42 -4 14 6 23 7 20 3 -4 -4 -3 -14 2 -24 7 -14 2 -21 -30 -36 -22 -10 -40 -22
-40 -26 0 -12 19 -19 25 -8 4 6 16 3 32 -10 14 -11 34 -20 44 -20 38 0 35 -61
-5 -105 -27 -29 -51 -31 -92 -10 -24 11 -30 22 -32 49 -1 19 2 37 8 41 5 3 10
20 10 37 0 31 0 31 -22 12 -12 -10 -18 -13 -13 -5 6 11 2 13 -18 9 -27 -5 -38
6 -29 30 2 6 11 12 19 12 12 0 13 -3 4 -14 -10 -12 -8 -13 8 -9 21 5 30 33 11
33 -18 0 -10 18 10 23 11 3 20 12 20 21 0 20 7 20 26 1z m3127 -221 c-4 -10
-9 -12 -15 -6 -12 12 -1 35 12 27 5 -3 6 -13 3 -21z m-1275 -104 c5 -14 -62
12 -97 38 -50 37 -31 42 30 9 35 -20 65 -40 67 -47z m-1192 -201 c-14 -23
-120 -116 -198 -176 -240 -184 -378 -283 -392 -283 -4 0 -20 -8 -34 -18 -42
-29 -361 -154 -377 -148 -8 3 -15 1 -15 -5 0 -6 -5 -7 -11 -3 -7 4 9 19 37 38
27 17 51 33 54 36 3 3 39 25 80 50 41 24 77 47 78 52 2 4 8 8 14 8 13 0 97 58
287 198 84 63 190 138 235 167 179 115 288 153 242 84z m2764 -749 c0 -5 -4
-10 -10 -10 -5 0 -10 5 -10 10 0 6 5 10 10 10 6 0 10 -4 10 -10z"/>
<path d="M1390 4260 c0 -5 8 -11 18 -14 9 -2 4 -4 -12 -3 -24 2 -30 -2 -31
-20 -1 -12 2 -20 7 -17 4 3 8 1 8 -5 0 -6 6 -8 14 -5 8 3 17 1 20 -4 3 -6 -2
-13 -11 -16 -15 -6 -15 -8 -3 -16 23 -15 30 -12 30 11 0 11 4 18 8 15 4 -2 14
4 21 16 7 11 8 17 2 13 -7 -3 -11 2 -11 13 0 13 -10 24 -30 31 -16 5 -30 6
-30 1z"/>
<path d="M3895 4249 c-9 -14 -2 -20 14 -10 8 6 9 11 3 15 -6 3 -14 1 -17 -5z"/>
<path d="M2990 3859 c0 -5 5 -7 10 -4 6 3 10 8 10 11 0 2 -4 4 -10 4 -5 0 -10
-5 -10 -11z"/>
<path d="M4316 3765 c-3 -8 -1 -15 4 -15 6 0 10 7 10 15 0 8 -2 15 -4 15 -2 0
-6 -7 -10 -15z"/>
<path d="M2437 3683 c-26 -9 -67 -34 -90 -55 l-42 -39 37 6 c20 3 65 16 100
28 53 18 85 22 205 22 78 0 140 1 139 2 -1 1 -50 13 -110 27 -123 30 -171 31
-239 9z"/>
<path d="M2808 3633 c7 -3 16 -2 19 1 4 3 -2 6 -13 5 -11 0 -14 -3 -6 -6z"/>
<path d="M2724 3585 c33 -25 378 -133 446 -139 77 -7 64 6 -23 24 -32 6 -91
23 -130 36 -70 24 -159 51 -262 79 -43 12 -47 12 -31 0z"/>
<path d="M2985 3570 c72 -42 90 -47 291 -70 203 -23 227 -24 204 -11 -20 12
-149 36 -300 56 -69 10 -147 26 -175 36 -71 27 -78 23 -20 -11z"/>
<path d="M4438 3360 c-7 -11 -18 -20 -25 -20 -6 0 -15 -9 -18 -20 -3 -11 -11
-20 -16 -20 -6 0 -8 -4 -5 -9 3 -5 -1 -14 -9 -21 -8 -7 -15 -20 -15 -29 0 -9
-7 -29 -15 -45 -8 -15 -15 -36 -15 -45 0 -10 -6 -25 -13 -35 -7 -10 -11 -31
-9 -47 4 -26 8 -29 31 -26 38 6 102 41 127 69 51 55 99 158 74 158 -4 0 -8 16
-7 36 2 59 -59 97 -85 54z"/>
<path d="M3560 3230 c-78 -14 -127 -30 -151 -48 -22 -18 -22 -19 -6 -90 30
-131 137 -302 190 -302 19 0 18 2 -8 30 -26 28 -24 45 3 18 9 -9 20 -7 46 7
33 18 35 21 45 104 6 47 18 115 26 151 8 36 15 72 15 81 0 42 -74 65 -160 49z"/>
<path d="M3064 2792 c-68 -44 -116 -95 -169 -178 -39 -61 -75 -137 -75 -158 0
-15 116 -69 180 -84 105 -24 152 -25 213 -2 32 12 70 20 83 17 13 -2 27 0 30
4 3 5 -9 12 -26 15 -17 4 -33 11 -37 17 -4 6 2 8 17 4 24 -6 126 26 148 48 11
10 4 15 -35 25 -26 7 -55 18 -63 25 -58 45 -194 60 -279 30 -24 -8 -52 -15
-63 -15 -16 0 -17 3 -8 20 6 11 8 20 4 20 -19 0 43 51 75 61 20 6 41 14 46 18
6 3 33 6 60 7 61 2 105 18 105 39 0 8 -4 15 -9 15 -4 0 -6 11 -4 24 3 13 -1
27 -8 31 -8 6 -10 4 -4 -6 4 -8 -3 -2 -16 13 -53 59 -86 61 -165 10z"/>
<path d="M3468 2469 c-15 -8 -12 -16 28 -73 60 -87 103 -181 113 -252 6 -42 9
-49 10 -24 1 62 -27 167 -71 265 -24 52 -47 95 -53 95 -5 0 -18 -5 -27 -11z"/>
<path d="M2789 2237 c-46 -76 -71 -164 -76 -272 l-5 -100 19 30 c10 17 34 66
52 110 18 44 41 97 51 118 20 44 20 121 -1 142 -12 13 -18 9 -40 -28z"/>
<path d="M3161 2152 c-8 -6 3 -10 34 -10 57 -2 89 -25 80 -59 -6 -27 -8 -27
44 -8 23 8 47 13 54 10 6 -2 27 -6 46 -9 29 -5 32 -4 21 10 -26 31 -50 37 -97
24 -42 -12 -45 -12 -71 13 -29 27 -89 43 -111 29z"/>
<path d="M3035 2111 c-59 -7 -144 -57 -177 -104 -21 -29 -21 -30 -2 -23 10 4
66 20 124 34 86 22 100 28 75 32 -30 6 -29 6 10 13 22 4 72 7 110 7 61 1 68 2
52 14 -10 8 -39 17 -65 21 -26 3 -54 7 -62 9 -8 2 -38 0 -65 -3z"/>
<path d="M3357 2023 c18 -2 50 -2 70 0 21 2 7 4 -32 4 -38 0 -55 -2 -38 -4z"/>
<path d="M3596 1948 c-3 -40 -2 -134 3 -208 5 -95 9 -116 10 -70 3 86 0 344
-4 348 -2 2 -6 -29 -9 -70z"/>
<path d="M2906 1966 c-21 -8 -43 -20 -47 -28 -10 -15 8 -39 25 -32 16 6 126
-34 126 -47 0 -5 9 -9 21 -9 11 0 18 -4 15 -8 -8 -13 46 -40 92 -46 69 -8 245
10 283 29 37 19 78 62 79 83 0 8 -11 5 -30 -10 l-30 -22 -109 17 c-103 15
-134 25 -206 64 -41 23 -168 28 -219 9z"/>
<path d="M1313 2993 c-45 -68 -2 -459 66 -607 27 -58 111 -164 96 -121 -4 11
-12 38 -17 60 -5 22 -28 81 -51 130 l-41 90 3 179 c1 98 6 189 11 202 16 41
38 28 50 -30 3 -17 11 -32 18 -32 7 -1 16 -2 22 -3 15 -2 40 -57 40 -89 0 -16
-10 -60 -23 -98 -25 -74 -27 -103 -9 -147 7 -15 14 -38 18 -51 7 -27 41 -48
79 -48 44 0 48 14 19 76 -27 60 -28 71 -8 228 5 40 1 59 -25 114 -41 87 -66
120 -112 150 -55 34 -113 33 -136 -3z"/>
<path d="M1480 2391 c0 -6 19 -18 62 -39 4 -1 5 3 3 10 -6 15 -65 41 -65 29z"/>
<path d="M286 3822 c-3 -5 1 -9 9 -9 8 0 12 4 9 9 -3 4 -7 8 -9 8 -2 0 -6 -4
-9 -8z"/>
<path d="M1 2595 c0 -434 3 -802 6 -817 3 -17 12 -28 22 -29 11 0 9 -3 -6 -9
-23 -9 -32 -30 -13 -30 6 0 10 6 10 13 0 9 2 9 9 -1 4 -7 5 -30 1 -51 -4 -20
-3 -46 2 -57 7 -17 8 -16 4 4 -4 23 9 31 16 10 3 -7 7 -5 11 6 4 9 3 15 -2 12
-5 -3 -11 1 -15 9 -3 8 0 14 7 12 7 -1 11 6 11 15 -1 10 1 17 5 16 20 -2 31 4
31 17 0 8 -5 14 -11 13 -6 -2 -14 3 -16 10 -3 6 2 12 11 12 8 0 18 5 22 12 5
8 2 9 -9 5 -14 -5 -15 -2 -7 19 13 33 13 31 -10 37 -11 3 -20 10 -20 17 0 6 4
9 9 6 13 -9 20 16 10 36 -6 10 -5 19 1 23 7 4 7 13 0 26 -6 10 -8 19 -4 19 3
0 2 6 -3 13 -6 6 -10 19 -10 27 0 8 -6 42 -13 75 -13 63 -19 144 -11 159 7 15
7 66 0 66 -4 0 -6 11 -5 25 0 14 4 25 7 25 4 0 3 17 -2 38 -4 20 -10 136 -13
257 -8 287 -8 269 11 318 21 52 25 208 5 215 -6 2 -9 8 -6 14 13 20 4 107 -15
155 l-20 48 0 -790z"/>
<path d="M4750 1716 c0 -2 7 -9 15 -16 13 -11 14 -10 9 4 -5 14 -24 23 -24 12z"/>
<path d="M80 1649 c0 -5 5 -7 10 -4 6 3 10 8 10 11 0 2 -4 4 -10 4 -5 0 -10
-5 -10 -11z"/>
<path d="M65 1609 c-11 -16 -1 -19 13 -3 7 8 8 14 3 14 -5 0 -13 -5 -16 -11z"/>
<path d="M235 1270 c-3 -6 1 -7 9 -4 18 7 21 14 7 14 -6 0 -13 -4 -16 -10z"/>
<path d="M4688 1203 c7 -3 16 -2 19 1 4 3 -2 6 -13 5 -11 0 -14 -3 -6 -6z"/>
<path d="M4830 1120 c-69 -3 -118 -7 -109 -8 18 -2 42 -48 34 -63 -4 -5 -1 -9
6 -9 6 0 9 -8 6 -20 -3 -11 -1 -20 4 -20 6 0 5 -8 -1 -19 -12 -24 -13 -34 -1
-27 15 10 41 -5 41 -23 -1 -14 -2 -14 -14 2 -13 16 -14 15 -18 -12 -2 -17 -1
-28 4 -25 4 3 8 0 8 -5 0 -6 5 -11 10 -11 6 0 10 8 10 17 0 21 9 13 13 -13 1
-10 6 -25 10 -31 5 -8 4 -13 -2 -13 -6 0 -11 -7 -11 -15 0 -8 6 -14 13 -12 7
1 11 -8 10 -26 -1 -16 2 -25 8 -21 5 3 16 1 23 -5 8 -7 18 -10 22 -9 5 2 10 0
12 -4 6 -19 1 -28 -15 -28 -12 -1 -8 -5 10 -13 16 -7 28 -14 28 -17 -2 -20 14
-50 25 -50 8 0 18 -8 21 -17 6 -15 7 -15 14 3 8 18 8 18 14 -2 5 -15 14 -20
36 -19 16 1 29 -2 29 -7 0 -5 5 -6 10 -3 6 3 10 -1 10 -10 0 -9 4 -14 10 -10
5 3 7 12 3 20 -3 9 1 15 8 15 11 0 11 3 -1 10 -10 7 -11 10 -2 10 10 0 12 53
10 248 l-3 247 -80 1 c-44 0 -136 -2 -205 -6z m-40 -50 c0 -5 -4 -10 -10 -10
-5 0 -10 5 -10 10 0 6 5 10 10 10 6 0 10 -4 10 -10z m190 -410 c0 8 3 11 6 7
3 -3 3 -10 0 -16 -8 -12 -36 -3 -36 11 0 6 6 5 15 -2 12 -10 15 -10 15 0z m94
-26 c23 -9 20 -23 -4 -21 -11 1 -20 7 -20 14 0 15 2 15 24 7z"/>
<path d="M315 1110 c-3 -6 1 -7 9 -4 18 7 21 14 7 14 -6 0 -13 -4 -16 -10z"/>
<path d="M4728 1023 c7 -3 16 -2 19 1 4 3 -2 6 -13 5 -11 0 -14 -3 -6 -6z"/>
<path d="M4786 861 c-3 -5 1 -14 9 -21 12 -10 15 -10 15 3 0 19 -16 31 -24 18z"/>
<path d="M4868 733 c7 -3 16 -2 19 1 4 3 -2 6 -13 5 -11 0 -14 -3 -6 -6z"/>
</g>
</svg>
